<svg width="34" height="34" viewBox="0 0 34 34" xmlns="http://www.w3.org/2000/svg">
<path d="M8.54836 28.6316C8.18935 28.6316 7.87024 28.5265 7.59101 28.3164C7.31178 28.1063 7.13227 27.8311 7.05249 27.4909L3.61199 15.154C3.53221 14.8138 3.59703 14.5136 3.80645 14.2535C4.01588 13.9933 4.30009 13.8632 4.6591 13.8632H10.6127L16.0576 5.8487C16.1773 5.6886 16.3119 5.56854 16.4615 5.48849C16.6111 5.40845 16.7757 5.36842 16.9552 5.36842C17.1347 5.36842 17.2992 5.40845 17.4488 5.48849C17.5984 5.56854 17.733 5.6886 17.8527 5.8487L23.2677 13.8632H29.3709C29.7099 13.8632 29.9842 13.9933 30.1936 14.2535C30.403 14.5136 30.4678 14.8138 30.3881 15.154L26.9476 27.4909C26.8478 27.8311 26.6584 28.1063 26.3791 28.3164C26.0999 28.5265 25.7908 28.6316 25.4517 28.6316H8.54836ZM8.90737 26.5904H25.0628L28.0545 15.9044H5.94555L8.90737 26.5904ZM16.9851 23.0784C17.5036 23.0784 17.9374 22.9033 18.2865 22.5531C18.6355 22.2029 18.81 21.7677 18.81 21.2474C18.81 20.7271 18.6355 20.2919 18.2865 19.9417C17.9374 19.5915 17.5036 19.4164 16.9851 19.4164C16.4665 19.4164 16.0327 19.5915 15.6837 19.9417C15.3346 20.2919 15.1601 20.7271 15.1601 21.2474C15.1601 21.7677 15.3346 22.2029 15.6837 22.5531C16.0327 22.9033 16.4665 23.0784 16.9851 23.0784ZM13.0659 13.8632H20.8145L16.9552 8.19002L13.0659 13.8632ZM8.90737 26.5904H25.0628H8.90737Z" fill="currentColor"/>
</svg>
