<svg width="18" height="18" viewBox="0 0 18 18" xmlns="http://www.w3.org/2000/svg">
<path d="M12.75 6H15L17.25 9.042V13.5H15.7238C15.6346 14.1257 15.3227 14.6983 14.8453 15.1125C14.3679 15.5267 13.757 15.7547 13.125 15.7547C12.493 15.7547 11.8821 15.5267 11.4047 15.1125C10.9273 14.6983 10.6154 14.1257 10.5262 13.5H6.72375C6.63459 14.1257 6.32266 14.6983 5.84526 15.1125C5.36786 15.5267 4.75704 15.7547 4.125 15.7547C3.49296 15.7547 2.88214 15.5267 2.40474 15.1125C1.92734 14.6983 1.61541 14.1257 1.52625 13.5H0.75V4.5C0.75 4.30109 0.829018 4.11032 0.96967 3.96967C1.11032 3.82902 1.30109 3.75 1.5 3.75H12C12.1989 3.75 12.3897 3.82902 12.5303 3.96967C12.671 4.11032 12.75 4.30109 12.75 4.5V6ZM12.75 7.5V9.75H15.75V9.53625L14.244 7.5H12.75Z" fill="currentColor"/>
</svg>
