<svg width="28" height="28" viewBox="0 0 28 28" xmlns="http://www.w3.org/2000/svg">
<path d="M13.9997 14.525L4.08301 8.02085V21.5834H15.458V23.3334H4.08301C3.61634 23.3334 3.20801 23.1584 2.85801 22.8084C2.50801 22.4584 2.33301 22.05 2.33301 21.5834V6.41669C2.33301 5.95002 2.50801 5.54169 2.85801 5.19169C3.20801 4.84169 3.61634 4.66669 4.08301 4.66669H23.9163C24.383 4.66669 24.7913 4.84169 25.1413 5.19169C25.4913 5.54169 25.6663 5.95002 25.6663 6.41669V15.4584H23.9163V8.02085L13.9997 14.525ZM13.9997 12.775L23.9163 6.41669H4.08301L13.9997 12.775ZM22.5747 26.7167L21.3497 25.4917L23.4788 23.3334H17.208V21.5834H23.4788L21.3205 19.425L22.5747 18.2L26.833 22.4584L22.5747 26.7167ZM4.08301 8.02085V22.575V15.4584V15.575V6.41669V8.02085Z" fill="currentColor"/>
</svg>
