<svg width="18" height="18" viewBox="0 0 18 18" xmlns="http://www.w3.org/2000/svg">
<path d="M15.75 6.75V15.7447C15.7507 15.8432 15.732 15.9409 15.6949 16.0322C15.6579 16.1234 15.6032 16.2065 15.534 16.2766C15.4649 16.3468 15.3826 16.4026 15.2919 16.4409C15.2011 16.4792 15.1037 16.4993 15.0052 16.5H2.99475C2.79736 16.5 2.60804 16.4216 2.4684 16.2821C2.32875 16.1426 2.2502 15.9534 2.25 15.756V2.244C2.25 1.84125 2.58525 1.5 2.9985 1.5H10.5V6C10.5 6.19891 10.579 6.38968 10.7197 6.53033C10.8603 6.67098 11.0511 6.75 11.25 6.75H15.75ZM15.75 5.25H12V1.50225L15.75 5.25ZM6 5.25V6.75H8.25V5.25H6ZM6 8.25V9.75H12V8.25H6ZM6 11.25V12.75H12V11.25H6Z" fill="currentColor"/>
</svg>
