<svg width="28" height="28" viewBox="0 0 28 28" xmlns="http://www.w3.org/2000/svg">
<path d="M12.833 24.5V22.75H22.7497V13.8833C22.7497 12.7556 22.5066 11.6715 22.0205 10.6312C21.5344 9.59097 20.883 8.67222 20.0663 7.875C19.2497 7.07778 18.3163 6.44097 17.2663 5.96458C16.2163 5.48819 15.1275 5.25 13.9997 5.25C12.8719 5.25 11.783 5.48819 10.733 5.96458C9.68301 6.44097 8.74967 7.07778 7.93301 7.875C7.11634 8.67222 6.46495 9.59097 5.97884 10.6312C5.49273 11.6715 5.24967 12.7556 5.24967 13.8833V21H4.66634C4.02467 21 3.47537 20.7715 3.01842 20.3146C2.56148 19.8576 2.33301 19.3083 2.33301 18.6667V16.3333C2.33301 15.8861 2.43995 15.4924 2.65384 15.1521C2.86773 14.8118 3.14967 14.5347 3.49967 14.3208L3.58717 12.775C3.76217 11.3556 4.16565 10.0722 4.79759 8.925C5.42954 7.77778 6.21704 6.80556 7.16009 6.00833C8.10315 5.21111 9.16287 4.59375 10.3393 4.15625C11.5156 3.71875 12.7358 3.5 13.9997 3.5C15.283 3.5 16.5129 3.71875 17.6893 4.15625C18.8656 4.59375 19.9205 5.21597 20.8538 6.02292C21.7872 6.82986 22.5698 7.80208 23.2018 8.93958C23.8337 10.0771 24.2372 11.3458 24.4122 12.7458L24.4997 14.2625C24.8497 14.4375 25.1316 14.6951 25.3455 15.0354C25.5594 15.3757 25.6663 15.75 25.6663 16.1583V18.8417C25.6663 19.2694 25.5594 19.6486 25.3455 19.9792C25.1316 20.3097 24.8497 20.5625 24.4997 20.7375V22.75C24.4997 23.2361 24.3295 23.6493 23.9893 23.9896C23.649 24.3299 23.2358 24.5 22.7497 24.5H12.833ZM10.4997 16.0417C10.2663 16.0417 10.0622 15.9542 9.88717 15.7792C9.71217 15.6042 9.62467 15.3903 9.62467 15.1375C9.62467 14.9042 9.71217 14.7049 9.88717 14.5396C10.0622 14.3743 10.2761 14.2917 10.5288 14.2917C10.7622 14.2917 10.9615 14.3743 11.1268 14.5396C11.292 14.7049 11.3747 14.9139 11.3747 15.1667C11.3747 15.4 11.292 15.6042 11.1268 15.7792C10.9615 15.9542 10.7525 16.0417 10.4997 16.0417ZM17.4997 16.0417C17.2663 16.0417 17.0622 15.9542 16.8872 15.7792C16.7122 15.6042 16.6247 15.3903 16.6247 15.1375C16.6247 14.9042 16.7122 14.7049 16.8872 14.5396C17.0622 14.3743 17.2761 14.2917 17.5288 14.2917C17.7622 14.2917 17.9615 14.3743 18.1268 14.5396C18.292 14.7049 18.3747 14.9139 18.3747 15.1667C18.3747 15.4 18.292 15.6042 18.1268 15.7792C17.9615 15.9542 17.7525 16.0417 17.4997 16.0417ZM7.02884 14.525C6.95106 13.3778 7.11148 12.3375 7.51009 11.4042C7.9087 10.4708 8.44342 9.67847 9.11426 9.02708C9.78509 8.37569 10.558 7.875 11.433 7.525C12.308 7.175 13.183 7 14.058 7C15.8275 7 17.315 7.55903 18.5205 8.67708C19.7261 9.79514 20.465 11.1903 20.7372 12.8625C18.9094 12.8431 17.3004 12.3521 15.9101 11.3896C14.5198 10.4271 13.4455 9.17778 12.6872 7.64167C12.3761 9.21667 11.7198 10.6118 10.7184 11.8271C9.71704 13.0424 8.48717 13.9417 7.02884 14.525Z" fill="currentColor"/>
</svg>
