<svg width="26" height="25" viewBox="0 0 26 25" xmlns="http://www.w3.org/2000/svg">
<path d="M2 19.0833V17.4583H12.8333V19.0833H2ZM2 13.3958V11.7708H7.41667V13.3958H2ZM2 7.70833V6.08333H7.41667V7.70833H2ZM22.5292 19.0833L18.1958 14.75C17.7264 15.1111 17.2208 15.3819 16.6792 15.5625C16.1375 15.7431 15.5778 15.8333 15 15.8333C13.5014 15.8333 12.224 15.3052 11.1677 14.249C10.1115 13.1927 9.58333 11.9153 9.58333 10.4167C9.58333 8.91806 10.1115 7.64062 11.1677 6.58438C12.224 5.52813 13.5014 5 15 5C16.4986 5 17.776 5.52813 18.8323 6.58438C19.8885 7.64062 20.4167 8.91806 20.4167 10.4167C20.4167 10.9944 20.3264 11.5542 20.1458 12.0958C19.9653 12.6375 19.6944 13.1431 19.3333 13.6125L23.6667 17.9458L22.5292 19.0833ZM15 14.2083C16.0472 14.2083 16.941 13.8382 17.6812 13.0979C18.4215 12.3576 18.7917 11.4639 18.7917 10.4167C18.7917 9.36944 18.4215 8.47569 17.6812 7.73542C16.941 6.99514 16.0472 6.625 15 6.625C13.9528 6.625 13.059 6.99514 12.3187 7.73542C11.5785 8.47569 11.2083 9.36944 11.2083 10.4167C11.2083 11.4639 11.5785 12.3576 12.3187 13.0979C13.059 13.8382 13.9528 14.2083 15 14.2083Z" fill="currentColor"/>
</svg>
