<svg width="34" height="34" viewBox="0 0 34 34" xmlns="http://www.w3.org/2000/svg">
<path d="M17 16.9646C15.4416 16.9646 14.1666 16.4688 13.175 15.4771C12.1833 14.4854 11.6875 13.2104 11.6875 11.6521C11.6875 10.0938 12.1833 8.81875 13.175 7.82708C14.1666 6.83542 15.4416 6.33958 17 6.33958C18.5583 6.33958 19.8333 6.83542 20.825 7.82708C21.8166 8.81875 22.3125 10.0938 22.3125 11.6521C22.3125 13.2104 21.8166 14.4854 20.825 15.4771C19.8333 16.4688 18.5583 16.9646 17 16.9646ZM5.66663 28.3333V25.0042C5.66663 24.1069 5.89093 23.3396 6.33954 22.7021C6.78815 22.0646 7.36663 21.5806 8.07496 21.25C9.6569 20.5417 11.1739 20.0104 12.626 19.6562C14.0781 19.3021 15.5361 19.125 17 19.125C18.4639 19.125 19.9159 19.308 21.3562 19.674C22.7965 20.0399 24.3076 20.5653 25.8895 21.25C26.6215 21.5806 27.2118 22.0646 27.6604 22.7021C28.109 23.3396 28.3333 24.1069 28.3333 25.0042V28.3333H5.66663ZM7.79163 26.2083H26.2083V25.0042C26.2083 24.6264 26.0961 24.2663 25.8718 23.924C25.6475 23.5816 25.3701 23.3278 25.0395 23.1625C23.5284 22.4306 22.1472 21.9288 20.8958 21.6573C19.6444 21.3858 18.3458 21.25 17 21.25C15.6541 21.25 14.3437 21.3858 13.0687 21.6573C11.7937 21.9288 10.4125 22.4306 8.92496 23.1625C8.5944 23.3278 8.32288 23.5816 8.11038 23.924C7.89788 24.2663 7.79163 24.6264 7.79163 25.0042V26.2083ZM17 14.8396C17.9208 14.8396 18.6823 14.5385 19.2843 13.9365C19.8864 13.3344 20.1875 12.5729 20.1875 11.6521C20.1875 10.7313 19.8864 9.96979 19.2843 9.36771C18.6823 8.76563 17.9208 8.46458 17 8.46458C16.0791 8.46458 15.3177 8.76563 14.7156 9.36771C14.1135 9.96979 13.8125 10.7313 13.8125 11.6521C13.8125 12.5729 14.1135 13.3344 14.7156 13.9365C15.3177 14.5385 16.0791 14.8396 17 14.8396Z" fill="currentColor"/>
</svg>
