<svg width="32" height="32" viewBox="0 0 32 32" fill="none" xmlns="http://www.w3.org/2000/svg">
<path d="M5.7677 26.4315C7.33696 26.4315 8.60909 25.1594 8.60909 23.5901C8.60909 22.0209 7.33696 20.7487 5.7677 20.7487C4.19844 20.7487 2.9263 22.0209 2.9263 23.5901C2.9263 25.1594 4.19844 26.4315 5.7677 26.4315Z" fill="#E6B175"/>
<path d="M25.3897 26.4315C26.9589 26.4315 28.2311 25.1594 28.2311 23.5901C28.2311 22.0209 26.9589 20.7487 25.3897 20.7487C23.8204 20.7487 22.5483 22.0209 22.5483 23.5901C22.5483 25.1594 23.8204 26.4315 25.3897 26.4315Z" fill="#E6B175"/>
<path d="M25.9253 8.73645H20.0596V23.564H21.2549C21.2549 21.2778 23.11 19.4227 25.3962 19.4227C27.6824 19.4227 29.5375 21.2778 29.5375 23.564H32V17.1169L25.9253 8.73645ZM23.5085 19.1745H22.0388C21.6861 19.1745 21.4052 18.8936 21.4052 18.5409C21.4052 18.1882 21.6861 17.9073 22.0388 17.9073H23.5085C23.8612 17.9073 24.1421 18.1882 24.1421 18.5409C24.1682 18.8936 23.8677 19.1745 23.5085 19.1745ZM21.6861 16.6074V10.3629H25.1153L29.6354 16.6074H21.6861Z" fill="#E6B175"/>
<path d="M0 23.5901H1.62645C1.62645 21.304 3.48153 19.4489 5.76771 19.4489C8.05389 19.4489 9.90896 21.304 9.90896 23.5901H18.7663V18.9198H0V23.5901Z" fill="#E6B175"/>
<path d="M0 5.56848V9.22637H3.83425V8.63196C3.83425 7.56072 5.08185 6.96632 5.91141 7.64564L9.73913 10.7548C10.3662 11.2643 10.3662 12.2245 9.7326 12.734L5.90488 15.8236C5.06879 16.4964 3.82772 15.902 3.82772 14.8308V14.2298H0V17.6591H18.7597V5.57501H0V5.56848Z" fill="#E6B175"/>
<path d="M5.13411 14.7589L8.88998 11.7346L5.13411 8.69073V10.5131H0V12.9561H5.13411V14.7589Z" fill="#E6B175"/>
</svg>
