<svg width="32" height="32" viewBox="0 0 32 32" fill="none" xmlns="http://www.w3.org/2000/svg">
<g clip-path="url(#clip0_283_898)">
<path d="M30.8889 2.09561C29.4107 0.618093 27.0184 0.615327 25.5375 2.08455C24.0558 0.615327 21.6629 0.618093 20.1846 2.09561C18.7037 3.5752 18.7037 5.97712 20.1846 7.45741C20.2566 7.53 23.7709 11.0264 25.0652 12.3138C25.3266 12.5744 25.749 12.5744 26.0083 12.3138C27.3019 11.0264 30.8156 7.53 30.8903 7.45741C32.3692 5.97781 32.3692 3.57451 30.8889 2.09561Z" fill="#E6B175"/>
<path d="M23.0325 19.6744C22.3826 17.724 20.5518 16.4083 18.4956 16.4083H18.069L17.4799 16.8162C16.8701 17.24 16.1573 17.4647 15.4154 17.4647C14.4488 17.4647 13.5306 17.0734 12.8593 16.409H12.2557L8.53804 18.9948C8.96948 19.7346 9.12227 20.5947 8.96948 21.4472C8.7987 22.3992 8.26771 23.2268 7.47467 23.7779L5.97849 24.815C5.94184 25.0528 5.91626 25.292 5.91626 25.5333V28.2167C5.91626 29.7654 7.18705 31.0148 8.73647 31.0148H21.9159C23.4653 31.0148 24.7382 29.7654 24.7382 28.2167V25.5333C24.7382 25.0203 24.6469 24.5101 24.4858 24.0219L23.0325 19.6744ZM15.3283 29.3844C12.6685 29.3844 10.5058 27.2217 10.5058 24.5619C10.5058 21.9028 12.6685 19.7394 15.3283 19.7394C17.9867 19.7394 20.1494 21.9028 20.1494 24.5619C20.1487 27.2217 17.986 29.3844 15.3283 29.3844Z" fill="#E6B175"/>
<path d="M15.3283 21.8275C13.8203 21.8275 12.5945 23.0533 12.5945 24.5619C12.5945 26.0699 13.8203 27.2964 15.3283 27.2964C16.8355 27.2964 18.0614 26.0699 18.0614 24.5619C18.0614 23.0533 16.8348 21.8275 15.3283 21.8275Z" fill="#E6B175"/>
<path d="M6.66436 19.9344L6.51571 19.7208C6.03312 19.0266 6.20389 18.0732 6.89806 17.5899L11.8803 14.1218C12.1389 13.9421 12.4438 13.848 12.7549 13.848C12.8448 13.848 12.9353 13.8556 13.0252 13.8715C13.4249 13.9434 13.7795 14.1709 14.0119 14.5049L14.1598 14.7178C14.4571 15.1444 14.9335 15.3732 15.4168 15.3732C15.7196 15.3732 16.0238 15.2847 16.29 15.0995L19.2285 13.0543C19.5624 12.8227 19.7899 12.468 19.8618 12.0677C19.9337 11.6694 19.8431 11.2574 19.6108 10.9227C18.2958 9.03243 16.1891 8.01953 14.0485 8.01953C12.7134 8.01884 11.3652 8.41294 10.187 9.23363L2.90385 14.3016C-0.16458 16.4373 -0.921662 20.6569 1.21545 23.7267C1.44776 24.0593 1.80176 24.2881 2.20069 24.3587C2.29058 24.3746 2.38046 24.3829 2.47034 24.3829C2.78078 24.3829 3.08707 24.2881 3.34565 24.1091L6.28479 22.0632C6.97618 21.5806 7.14765 20.6272 6.66436 19.9344Z" fill="#E6B175"/>
</g>
<defs>
<clipPath id="clip0_283_898">
<rect width="31.9993" height="32" fill="white"/>
</clipPath>
</defs>
</svg>
