<svg width="32" height="32" viewBox="0 0 32 32" fill="none" xmlns="http://www.w3.org/2000/svg">
<g clip-path="url(#clip0_284_924)">
<path d="M26.9609 16.7751C26.5329 16.7751 26.1858 16.4281 26.1858 16C26.1858 15.5719 26.5329 15.2249 26.9609 15.2249H27.7801C27.6049 12.5351 26.5251 10.0884 24.8423 8.18629L24.279 8.74979C24.1276 8.90118 23.9291 8.97692 23.7309 8.97692C23.5325 8.97692 23.3343 8.90118 23.1829 8.7499C22.8801 8.44725 22.8801 7.95648 23.1828 7.65382L23.7423 7.0942C21.8505 5.44755 19.4311 4.39295 16.7751 4.21991V5.03909C16.7751 5.46716 16.4281 5.8142 16 5.8142C15.5719 5.8142 15.2249 5.46716 15.2249 5.03909V4.21991C12.559 4.39359 10.1316 5.45552 8.23682 7.11273L8.84515 7.72105C9.1478 8.02382 9.1478 8.51448 8.84515 8.81724C8.69377 8.96852 8.4953 9.04426 8.29705 9.04426C8.0987 9.04426 7.90034 8.96852 7.74896 8.81724L7.13902 8.2073C5.46683 10.1064 4.39446 12.5451 4.21991 15.2249H5.13433C5.5624 15.2249 5.90944 15.5719 5.90944 16C5.90944 16.4281 5.5624 16.7751 5.13433 16.7751H4.21991C4.39295 19.4312 5.44755 21.8506 7.0942 23.7423L7.74885 23.0875C8.05161 22.7848 8.54217 22.7849 8.84493 23.0874C9.14769 23.3901 9.14769 23.8808 8.84504 24.1835L8.18619 24.8423C10.0883 26.5251 12.535 27.6049 15.2248 27.7801V26.8657C15.2248 26.4376 15.5718 26.0906 15.9999 26.0906C16.428 26.0906 16.775 26.4376 16.775 26.8657V27.7801C19.4549 27.6056 21.8935 26.5332 23.7926 24.861L23.1827 24.251C22.88 23.9483 22.88 23.4576 23.1827 23.1549C23.4854 22.8523 23.9761 22.8523 24.2788 23.1549L24.8872 23.7632C26.5444 21.8684 27.6064 19.441 27.78 16.7751H26.9609ZM21.2104 16.7751H16C15.5719 16.7751 15.2249 16.4281 15.2249 16V8.50209C15.2249 8.07402 15.5719 7.72698 16 7.72698C16.4281 7.72698 16.7751 8.07402 16.7751 8.50209V15.225H21.2104C21.6385 15.225 21.9855 15.572 21.9855 16.0001C21.9855 16.4282 21.6385 16.7751 21.2104 16.7751Z" fill="#E6B175"/>
<path d="M16 0C7.17759 0 0 7.17759 0 16C0 24.8224 7.17759 32 16 32C24.8224 32 32 24.8224 32 16C32 7.17759 24.8224 0 16 0ZM16 29.3564C8.63526 29.3564 2.64361 23.3647 2.64361 16C2.64361 8.63526 8.63526 2.64361 16 2.64361C23.3647 2.64361 29.3564 8.63526 29.3564 16C29.3564 23.3647 23.3647 29.3564 16 29.3564Z" fill="#E6B175"/>
</g>
<defs>
<clipPath id="clip0_284_924">
<rect width="32" height="32" fill="white"/>
</clipPath>
</defs>
</svg>
