<svg width="32" height="32" viewBox="0 0 32 32" fill="none" xmlns="http://www.w3.org/2000/svg">
<g clip-path="url(#clip0_284_945)">
<path d="M9.19135 5.52838L3.66363 0.000671387C2.77446 0.28458 1.98537 0.718273 1.35151 1.35145C0.718334 1.98463 0.284641 2.77372 0.000732422 3.66357L6.48638 10.1485C6.76416 8.28101 7.76091 6.64359 9.19135 5.52838Z" fill="#E6B175"/>
<path d="M25.513 21.8514C25.2366 23.719 24.2392 25.3564 22.8087 26.4723L28.3364 32C29.2256 31.7161 30.0147 31.2824 30.6485 30.6485C31.2817 30.0154 31.7154 29.2263 31.9986 28.3371L25.513 21.8514Z" fill="#E6B175"/>
<path d="M25.5129 10.1486L31.9993 3.6629C31.7154 2.77373 31.2824 1.98464 30.6485 1.35146C30.0146 0.717602 29.2262 0.283909 28.3371 0L22.808 5.52771C24.2377 6.6436 25.2365 8.28102 25.5129 10.1486Z" fill="#E6B175"/>
<path d="M6.48633 21.8514L0 28.3364C0.283909 29.2263 0.717602 30.0154 1.35146 30.6485C1.98532 31.2824 2.77373 31.7154 3.6629 31.9993L9.19061 26.4716C7.76086 25.3557 6.76411 23.7183 6.48633 21.8514Z" fill="#E6B175"/>
<path d="M23.6795 12.1604C23.6795 8.99315 21.0862 6.39984 17.9204 6.39984H14.0804C10.9139 6.39984 8.32056 8.99315 8.32056 12.1604V19.8402C8.32056 23.0068 10.9139 25.6008 14.0804 25.6008H17.9204C21.0862 25.6008 23.6795 23.0068 23.6795 19.8402V12.1604ZM18.6672 21.8793H13.3315L14.5223 16.1433C13.5031 15.6102 12.7998 14.5522 12.7998 13.3205C12.7998 11.5524 14.2316 10.1213 16.0004 10.1213C17.7685 10.1213 19.1996 11.5531 19.1996 13.3205C19.1996 14.5529 18.4963 15.6109 17.4764 16.1433L18.6672 21.8793Z" fill="#E6B175"/>
</g>
<defs>
<clipPath id="clip0_284_945">
<rect width="31.9993" height="32" fill="white"/>
</clipPath>
</defs>
</svg>
