<svg width="28" height="28" viewBox="0 0 28 28" fill="none" xmlns="http://www.w3.org/2000/svg">
<g clip-path="url(#clip0_416_238)">
<path d="M25.6663 11.6667V23.3333C25.6663 23.6428 25.5434 23.9395 25.3246 24.1583C25.1058 24.3771 24.8091 24.5 24.4997 24.5H3.49967C3.19026 24.5 2.89351 24.3771 2.67472 24.1583C2.45592 23.9395 2.33301 23.6428 2.33301 23.3333V11.6667H25.6663ZM25.6663 9.33333H2.33301V4.66667C2.33301 4.35725 2.45592 4.0605 2.67472 3.84171C2.89351 3.62292 3.19026 3.5 3.49967 3.5H24.4997C24.8091 3.5 25.1058 3.62292 25.3246 3.84171C25.5434 4.0605 25.6663 4.35725 25.6663 4.66667V9.33333ZM17.4997 18.6667V21H22.1663V18.6667H17.4997Z" fill="#E6B175"/>
</g>
<defs>
<clipPath id="clip0_416_238">
<rect width="28" height="28" fill="white"/>
</clipPath>
</defs>
</svg>
