<svg width="28" height="28" viewBox="0 0 28 28" fill="none" xmlns="http://www.w3.org/2000/svg">
<g clip-path="url(#clip0_416_235)">
<path d="M19.8337 9.33331H23.3337L26.8337 14.0653V21H24.4595C24.3208 21.9733 23.8356 22.8639 23.0929 23.5082C22.3503 24.1526 21.4002 24.5073 20.417 24.5073C19.4338 24.5073 18.4837 24.1526 17.741 23.5082C16.9984 22.8639 16.5132 21.9733 16.3745 21H10.4595C10.3208 21.9733 9.83558 22.8639 9.09295 23.5082C8.35033 24.1526 7.40016 24.5073 6.41699 24.5073C5.43382 24.5073 4.48366 24.1526 3.74103 23.5082C2.99841 22.8639 2.51319 21.9733 2.37449 21H1.16699V6.99998C1.16699 6.69056 1.28991 6.39381 1.5087 6.17502C1.72749 5.95623 2.02424 5.83331 2.33366 5.83331H18.667C18.9764 5.83331 19.2732 5.95623 19.492 6.17502C19.7107 6.39381 19.8337 6.69056 19.8337 6.99998V9.33331ZM19.8337 11.6666V15.1666H24.5003V14.8341L22.1577 11.6666H19.8337Z" fill="#E6B175"/>
</g>
<defs>
<clipPath id="clip0_416_235">
<rect width="28" height="28" fill="white"/>
</clipPath>
</defs>
</svg>
