<svg width="32" height="32" viewBox="0 0 32 32" fill="none" xmlns="http://www.w3.org/2000/svg">
<g clip-path="url(#clip0_284_985)">
<path d="M26.9609 16.7752C26.5329 16.7752 26.1858 16.4281 26.1858 16.0001C26.1858 15.572 26.5329 15.225 26.9609 15.225H27.7801C27.6049 12.5351 26.5251 10.0885 24.8423 8.18635L24.279 8.74986C24.1276 8.90124 23.9291 8.97698 23.7309 8.97698C23.5325 8.97698 23.3343 8.90124 23.1829 8.74996C22.8801 8.44731 22.8801 7.95654 23.1828 7.65388L23.7423 7.09426C21.8505 5.44761 19.4311 4.39301 16.7751 4.21997V5.03915C16.7751 5.46722 16.4281 5.81426 16 5.81426C15.5719 5.81426 15.2249 5.46722 15.2249 5.03915V4.21997C12.559 4.39365 10.1316 5.45558 8.23682 7.11279L8.84515 7.72112C9.1478 8.02388 9.1478 8.51454 8.84515 8.8173C8.69377 8.96858 8.4953 9.04432 8.29705 9.04432C8.0987 9.04432 7.90034 8.96858 7.74896 8.8173L7.13902 8.20736C5.46683 10.1065 4.39446 12.5451 4.21991 15.225H5.13433C5.5624 15.225 5.90944 15.572 5.90944 16.0001C5.90944 16.4281 5.5624 16.7752 5.13433 16.7752H4.21991C4.39295 19.4313 5.44755 21.8507 7.0942 23.7423L7.74885 23.0876C8.05161 22.7848 8.54217 22.7849 8.84493 23.0875C9.14769 23.3901 9.14769 23.8809 8.84504 24.1836L8.18619 24.8424C10.0883 26.5252 12.535 27.605 15.2248 27.7802V26.8657C15.2248 26.4377 15.5718 26.0906 15.9999 26.0906C16.428 26.0906 16.775 26.4377 16.775 26.8657V27.7802C19.4549 27.6056 21.8935 26.5332 23.7926 24.861L23.1827 24.2511C22.88 23.9483 22.88 23.4577 23.1827 23.1549C23.4854 22.8524 23.9761 22.8524 24.2788 23.1549L24.8872 23.7632C26.5444 21.8685 27.6064 19.4411 27.78 16.7752H26.9609ZM21.2104 16.7752H16C15.5719 16.7752 15.2249 16.4281 15.2249 16.0001V8.50215C15.2249 8.07409 15.5719 7.72704 16 7.72704C16.4281 7.72704 16.7751 8.07409 16.7751 8.50215V15.2251H21.2104C21.6385 15.2251 21.9855 15.5721 21.9855 16.0002C21.9855 16.4282 21.6385 16.7752 21.2104 16.7752Z" fill="#E6B175"/>
<path d="M16 0C7.17759 0 0 7.17759 0 16C0 24.8224 7.17759 32 16 32C24.8224 32 32 24.8224 32 16C32 7.17759 24.8224 0 16 0ZM16 29.3564C8.63526 29.3564 2.64361 23.3647 2.64361 16C2.64361 8.63526 8.63526 2.64361 16 2.64361C23.3647 2.64361 29.3564 8.63526 29.3564 16C29.3564 23.3647 23.3647 29.3564 16 29.3564Z" fill="#E6B175"/>
</g>
<defs>
<clipPath id="clip0_284_985">
<rect width="32" height="32" fill="white"/>
</clipPath>
</defs>
</svg>
