<svg width="32" height="32" viewBox="0 0 32 32" fill="none" xmlns="http://www.w3.org/2000/svg">
<path d="M31.3469 1.03638H0.653061C0.292376 1.03638 0 1.32875 0 1.68944V28.4649C0 28.8256 0.292376 29.118 0.653061 29.118H17.6327V19.5641C17.4218 18.9782 17.3061 18.3471 17.3061 17.6894C17.3061 14.6286 19.7963 12.1384 22.8571 12.1384C25.918 12.1384 28.4082 14.6286 28.4082 17.6894C28.4082 18.3471 28.2925 18.9781 28.0816 19.5641V29.118H31.3469C31.7076 29.118 32 28.8256 32 28.4649V1.68944C32 1.32882 31.7076 1.03638 31.3469 1.03638ZM2.93878 11.4854H5.55102V12.7915H2.93878V11.4854ZM11.4286 25.8527H2.93878V24.5466H11.4286V25.8527ZM15.3469 22.5874H2.93878V21.2813H15.3469V22.5874ZM15.3469 19.3221H2.93878V18.016H15.3469V19.3221ZM15.3469 16.0568H2.93878V14.7507H15.3469V16.0568ZM18.6122 8.87311H13.3878V7.56699H18.6122V8.87311ZM21.8776 6.26087H10.1224V4.95474H21.8776V6.26087Z" fill="#E6B175"/>
<path d="M18.9388 21.6174V30.9633L22.2041 28.1645V24.5465H23.5102V28.1645L26.7755 30.9633V21.6174C25.7708 22.6198 24.3851 23.2404 22.8571 23.2404C21.3292 23.2404 19.9435 22.6198 18.9388 21.6174Z" fill="#E6B175"/>
<path d="M22.8571 13.4446C20.5165 13.4446 18.6122 15.3488 18.6122 17.6895C18.6122 20.0301 20.5165 21.9344 22.8571 21.9344C25.1978 21.9344 27.102 20.0301 27.102 17.6895C27.102 15.3488 25.1978 13.4446 22.8571 13.4446Z" fill="#E6B175"/>
</svg>
