<svg width="32" height="32" viewBox="0 0 32 32" fill="none" xmlns="http://www.w3.org/2000/svg">
<path d="M29.8972 4.47854C29.8398 4.06595 29.5429 3.72657 29.1416 3.61502L16.2803 0.0382745C16.0969 -0.0127582 15.9032 -0.0127582 15.7197 0.0382745L2.85839 3.61502C2.4571 3.72657 2.16025 4.06581 2.1028 4.47854C2.0282 5.01494 0.326416 17.6889 4.69138 23.9938C9.05119 30.2912 15.4828 31.905 15.7545 31.9706C15.8352 31.9902 15.9175 31.9998 16 31.9998C16.0825 31.9998 16.1648 31.99 16.2455 31.9706C16.5173 31.905 22.949 30.2912 27.3086 23.9938C31.6736 17.689 29.9718 5.01508 29.8972 4.47854ZM24.2939 11.8777L15.5212 20.6505C15.3171 20.8546 15.0493 20.9568 14.7818 20.9568C14.5142 20.9568 14.2465 20.8547 14.0424 20.6505L8.61825 15.2264C8.42207 15.0303 8.31191 14.7643 8.31191 14.4869C8.31191 14.2096 8.42221 13.9436 8.61825 13.7475L9.69523 12.6705C10.1036 12.2623 10.7658 12.2621 11.1741 12.6705L14.7818 16.2782L21.7381 9.32176C21.9342 9.12558 22.2002 9.01542 22.4775 9.01542C22.7549 9.01542 23.0209 9.12558 23.2169 9.32176L24.2939 10.3987C24.7023 10.8071 24.7023 11.4693 24.2939 11.8777Z" fill="#E6B175"/>
</svg>
