<svg width="32" height="32" viewBox="0 0 32 32" fill="none" xmlns="http://www.w3.org/2000/svg">
<g clip-path="url(#clip0_284_999)">
<path d="M28.7727 10.8179H19.357C21.3826 10.1553 23.4976 8.76737 24.3135 7.95154C26.1336 6.13145 26.1338 3.18541 24.3135 1.36518C22.4935 -0.454989 19.5475 -0.455128 17.7272 1.36518C17.1895 1.90279 16.5563 2.8053 16.0001 3.79721C15.4439 2.8053 14.8106 1.90279 14.273 1.36518C12.4528 -0.454919 9.50691 -0.455058 7.6866 1.36518C5.86644 3.18534 5.8663 6.13124 7.6866 7.95154C8.50249 8.76744 10.6176 10.1554 12.6432 10.818H3.22724C2.55796 10.818 2.01538 11.3605 2.01538 12.0298V17.6228C2.01538 18.2921 2.55796 18.8347 3.22724 18.8347H4.42024V30.7881C4.42024 31.4574 4.96282 32 5.6321 32H12.9941C12.9941 31.8348 12.9941 11.0129 12.9941 10.8179H15.788H19.0058C19.0058 11.0138 19.0058 31.8384 19.0058 32H26.3678C27.0371 32 27.5797 31.4574 27.5797 30.7881V18.8347H28.7727C29.442 18.8347 29.9845 18.2921 29.9845 17.6228V12.0298C29.9847 11.3605 29.4421 10.8179 28.7727 10.8179ZM9.78595 5.8522C9.1261 5.19235 9.12596 4.12444 9.78595 3.46445C10.4458 2.8046 11.5138 2.80453 12.1737 3.46445C12.5649 3.85567 13.2813 4.90311 13.8386 6.07376C14.2512 6.94043 14.4926 8.13252 14.4901 8.21347C13.1586 8.09131 10.6183 6.68464 9.78595 5.8522ZM17.4607 8.21829C17.5167 7.55963 17.8761 6.67326 18.1615 6.07376C18.7187 4.90311 19.4352 3.85567 19.8264 3.46445C20.4862 2.8046 21.5542 2.80453 22.2141 3.46445C22.874 4.12437 22.874 5.19221 22.214 5.8522C21.3663 6.70015 18.7703 8.1277 17.4607 8.21829Z" fill="#E6B175"/>
</g>
<defs>
<clipPath id="clip0_284_999">
<rect width="32" height="32" fill="white"/>
</clipPath>
</defs>
</svg>
