<svg width="40" height="40" viewBox="0 0 40 40" fill="none" xmlns="http://www.w3.org/2000/svg">
<path d="M27.1667 22.6667C27.8611 22.6667 28.4792 22.3958 29.0208 21.8542C29.5625 21.3125 29.8333 20.6806 29.8333 19.9583C29.8333 19.2639 29.5625 18.6528 29.0208 18.125C28.4792 17.5972 27.8611 17.3333 27.1667 17.3333C26.4722 17.3333 25.8542 17.5972 25.3125 18.125C24.7708 18.6528 24.5 19.2639 24.5 19.9583C24.5 20.6806 24.7708 21.3125 25.3125 21.8542C25.8542 22.3958 26.4722 22.6667 27.1667 22.6667ZM7.5 30.2917V32.5V7.5V30.2917ZM7.5 35C6.86111 35 6.28472 34.75 5.77083 34.25C5.25694 33.75 5 33.1667 5 32.5V7.5C5 6.86111 5.25694 6.28472 5.77083 5.77083C6.28472 5.25694 6.86111 5 7.5 5H32.5C33.1667 5 33.75 5.25694 34.25 5.77083C34.75 6.28472 35 6.86111 35 7.5V13.0833H32.5V7.5H7.5V32.5H32.5V26.9583H35V32.5C35 33.1667 34.75 33.75 34.25 34.25C33.75 34.75 33.1667 35 32.5 35H7.5ZM22.4167 27.7917C21.4722 27.7917 20.7222 27.5139 20.1667 26.9583C19.6111 26.4028 19.3333 25.6667 19.3333 24.75V15.2917C19.3333 14.3472 19.6111 13.6042 20.1667 13.0625C20.7222 12.5208 21.4722 12.25 22.4167 12.25H33.6667C34.6111 12.25 35.3611 12.5208 35.9167 13.0625C36.4722 13.6042 36.75 14.3472 36.75 15.2917V24.75C36.75 25.6667 36.4722 26.4028 35.9167 26.9583C35.3611 27.5139 34.6111 27.7917 33.6667 27.7917H22.4167ZM34.25 25.2917V14.75H21.8333V25.2917H34.25Z" fill="#0C4C42"/>
</svg>
