<svg width="40" height="40" viewBox="0 0 40 40" fill="none" xmlns="http://www.w3.org/2000/svg">
<path d="M36.6668 9.1665V30.8332C36.6668 31.4998 36.4168 32.0832 35.9168 32.5832C35.4168 33.0832 34.8335 33.3332 34.1668 33.3332H5.8335C5.16683 33.3332 4.5835 33.0832 4.0835 32.5832C3.5835 32.0832 3.3335 31.4998 3.3335 30.8332V9.1665C3.3335 8.49984 3.5835 7.9165 4.0835 7.4165C4.5835 6.9165 5.16683 6.6665 5.8335 6.6665H34.1668C34.8335 6.6665 35.4168 6.9165 35.9168 7.4165C36.4168 7.9165 36.6668 8.49984 36.6668 9.1665ZM5.8335 13.7082H34.1668V9.1665H5.8335V13.7082ZM5.8335 19.0832V30.8332H34.1668V19.0832H5.8335ZM5.8335 30.8332V9.1665V30.8332Z" fill="#0C4C42"/>
</svg>
