<svg width="32" height="32" viewBox="0 0 32 32" fill="none" xmlns="http://www.w3.org/2000/svg">
<path d="M5.38951 10.4V7.31892C5.80147 6.96372 6.06321 6.43921 6.06321 5.85259C6.06321 4.78297 5.19601 3.91577 4.12633 3.91577C3.05671 3.91577 2.18951 4.78297 2.18951 5.85259C2.18951 6.43921 2.45125 6.96366 2.86321 7.31892V10.4H5.38951Z" fill="#E6B175"/>
<path d="M28.9684 10.4V7.31892C29.3803 6.96372 29.6421 6.43921 29.6421 5.85259C29.6421 4.78297 28.7749 3.91577 27.7052 3.91577C26.6356 3.91577 25.7683 4.78297 25.7683 5.85259C25.7683 6.43921 26.0301 6.96366 26.442 7.31892V10.4H28.9684Z" fill="#E6B175"/>
<path d="M12.2719 20.6737H13.8439L13.0538 18.1008L12.2719 20.6737Z" fill="#E6B175"/>
<path d="M26.4421 11.2422H5.38949H2.86319H0V28.0843H32V11.2422H28.9684H26.4421ZM8.40857 22.327C8.15472 22.7144 7.79992 23.008 7.34436 23.2082C6.88873 23.4082 6.3143 23.5084 5.62105 23.5084C4.40388 23.5084 3.56093 23.2741 3.0922 22.8054C2.62348 22.3367 2.35822 21.7412 2.29644 21.0187L4.40055 20.887C4.44624 21.2286 4.53885 21.489 4.67884 21.668C4.90669 21.9577 5.2321 22.1026 5.65514 22.1026C5.97077 22.1026 6.21413 22.0284 6.38488 21.8805C6.5557 21.7325 6.64127 21.5606 6.64127 21.3655C6.64127 21.18 6.55987 21.0139 6.3972 20.8673C6.23446 20.7208 5.85685 20.5826 5.26455 20.4524C4.29465 20.2343 3.60303 19.9446 3.18977 19.5834C2.77312 19.2221 2.56489 18.7617 2.56489 18.2018C2.56489 17.834 2.67151 17.4865 2.88476 17.1595C3.09794 16.8323 3.41846 16.5752 3.84645 16.3881C4.27438 16.201 4.861 16.1073 5.60645 16.1073C6.52096 16.1073 7.21818 16.2773 7.69838 16.6175C8.17838 16.9576 8.46403 17.4987 8.55515 18.2406L6.47058 18.3627C6.41519 18.0406 6.29898 17.8063 6.12145 17.6598C5.94411 17.5133 5.69919 17.4401 5.38682 17.4401C5.12965 17.4401 4.93615 17.4948 4.80593 17.6037C4.67571 17.7127 4.61074 17.8455 4.61074 18.0017C4.61074 18.1155 4.66444 18.2181 4.77191 18.3092C4.87599 18.4035 5.12339 18.4915 5.51397 18.5728C6.48055 18.7811 7.17308 18.9919 7.5913 19.205C8.00952 19.4182 8.31381 19.6827 8.50411 19.9983C8.69442 20.3142 8.78977 20.6671 8.78977 21.0578C8.78938 21.5166 8.66242 21.9398 8.40857 22.327ZM14.6608 23.3686L14.3027 22.1896H11.7917L11.4426 23.3686H9.18485L11.8749 16.2949H14.2872L16.9763 23.3686H14.6608ZM23.4105 23.3686H17.6842V16.2948H19.8737V21.6842H23.4106L23.4105 23.3686ZM30.3158 16.2948V17.8106H26.6104V18.8211H29.9789V20.3369H26.6104V21.6843H30.3158V23.3686H24.4211V16.2948H30.3158Z" fill="#E6B175"/>
</svg>
