<svg width="32" height="32" viewBox="0 0 32 32" fill="none" xmlns="http://www.w3.org/2000/svg">
<path d="M5.76773 26.4316C7.33699 26.4316 8.60912 25.1594 8.60912 23.5902C8.60912 22.0209 7.33699 20.7488 5.76773 20.7488C4.19847 20.7488 2.92633 22.0209 2.92633 23.5902C2.92633 25.1594 4.19847 26.4316 5.76773 26.4316Z" fill="#E6B175"/>
<path d="M25.3897 26.4316C26.9589 26.4316 28.2311 25.1594 28.2311 23.5902C28.2311 22.0209 26.9589 20.7488 25.3897 20.7488C23.8204 20.7488 22.5483 22.0209 22.5483 23.5902C22.5483 25.1594 23.8204 26.4316 25.3897 26.4316Z" fill="#E6B175"/>
<path d="M25.9253 8.73657H20.0596V23.5641H21.255C21.255 21.2779 23.11 19.4228 25.3962 19.4228C27.6824 19.4228 29.5375 21.2779 29.5375 23.5641H32V17.1171L25.9253 8.73657ZM23.5085 19.1746H22.0388C21.6861 19.1746 21.4052 18.8937 21.4052 18.541C21.4052 18.1883 21.6861 17.9074 22.0388 17.9074H23.5085C23.8612 17.9074 24.1421 18.1883 24.1421 18.541C24.1682 18.8937 23.8678 19.1746 23.5085 19.1746ZM21.6861 16.6076V10.363H25.1154L29.6355 16.6076H21.6861Z" fill="#E6B175"/>
<path d="M0 23.5903H1.62645C1.62645 21.3041 3.48153 19.449 5.76771 19.449C8.05389 19.449 9.90896 21.3041 9.90896 23.5903H18.7663V18.9199H0V23.5903Z" fill="#E6B175"/>
<path d="M0 5.5686V9.22649H3.83425V8.63209C3.83425 7.56085 5.08185 6.96644 5.91141 7.64576L9.73913 10.755C10.3662 11.2645 10.3662 12.2247 9.7326 12.7341L5.90488 15.8238C5.06879 16.4965 3.82772 15.9021 3.82772 14.8309V14.23H0V17.6592H18.7597V5.57514H0V5.5686Z" fill="#E6B175"/>
<path d="M5.13411 14.7591L8.88998 11.7348L5.13411 8.69092V10.5133H0V12.9563H5.13411V14.7591Z" fill="#E6B175"/>
</svg>
