<svg width="240" height="58" viewBox="0 0 240 58" fill="none" xmlns="http://www.w3.org/2000/svg">
<g clip-path="url(#clip0_351_553)">
<path fill-rule="evenodd" clip-rule="evenodd" d="M203.352 28.2547C201.242 31.1569 198.662 34.0569 196.708 35.9206C193.014 39.4424 187.54 43.426 182.135 42.455C174.617 42.2817 169.898 36.4665 169.898 29.1165C169.898 21.242 176.053 15.2529 183.855 14.9811C188.52 14.818 193.874 16.8619 193.995 22.2891C194.126 28.1411 187.789 30.7883 182.806 30.7883C181.258 30.7883 179.582 30.5327 178.087 29.9906C178.698 33.6395 180.762 37.3636 184.67 38.0313L184.686 38.0339C186.619 38.3085 190.58 35.9847 192.13 34.9844C193.454 34.1299 194.76 33.1808 196.021 32.1603L196.02 29.9801V26.1833L196.041 26.1617V17.765L196.3 17.4567L196.497 17.4227C198.655 17.0509 200.884 16.3696 202.814 15.3262L203.088 15.1784L203.622 15.4994V24.3837L203.944 23.9514C205.665 20.2405 209.244 14.8405 213.76 14.8405C220.008 14.8405 220.944 20.5952 221.074 25.6155C222.94 20.7043 226.484 14.8405 231.417 14.8405C238.419 14.8405 238.749 22.0677 238.749 27.3894V33.7293L238.753 33.7333V35.2788V35.3334V35.3512V35.3664L238.754 35.4001L238.754 35.4254V35.4333L238.755 35.4663V35.4993L238.755 35.5009V35.5329L238.756 35.5659L238.757 35.5786C238.792 37.1426 239.101 39.6269 239.838 40.8806L240 41.1563L239.685 41.7123H235.509C232.3 41.7123 231.219 39.1445 231.154 36.3473L231.144 36.3374L231.147 36.1068L231.15 35.7971V35.7664V35.7347V35.1149V35.0841V35.0533V35.022L231.147 34.1232V26.6427C231.147 24.5233 231.038 19.8177 227.979 19.8177C226.539 19.8177 225.099 21.6113 224.387 22.6876C222.755 25.1587 221.718 28.3474 221.093 31.2296V33.9716C221.093 34.7142 221.089 35.4604 221.117 36.2225V41.4824L220.795 41.8056H213.813L213.491 41.4824V36.0357C213.498 35.5441 213.491 35.0517 213.491 34.5597L213.49 27.2491C213.49 25.1574 213.451 19.8177 210.322 19.8177C207.879 19.8177 204.966 26.0333 203.352 28.2547ZM177.893 28.1774C178.91 28.5859 180.047 28.8923 181.134 28.8923C185.139 28.8923 187.234 25.5587 187.322 21.8209C187.366 19.9604 186.712 16.69 184.293 16.69C179.347 16.69 177.657 24.0833 177.893 28.1774ZM138.898 20.914C140.12 19.9931 141.85 14.8526 139.295 14.7632C134.699 14.6033 133.139 19.771 132.986 23.5253C132.444 36.852 143.722 45.1725 156.404 43.8681C161.64 43.3298 166.929 42.6589 172.182 42.3718C177.546 42.0791 183.307 44.8407 183.307 50.859C183.307 55.2457 179.773 57.8691 175.619 57.9925C173.591 58.0528 171.41 57.1789 170.631 55.1668L170.528 54.9022L170.838 54.427L171.121 54.416C173.744 54.3116 175.844 52.715 175.844 49.9718C175.844 45.9015 171.663 44.4102 168.212 44.6863C163.435 45.0685 158.601 46.2666 153.78 46.7796C152.124 46.9553 150.458 47.0689 148.793 47.0689C139.875 47.0689 131.413 42.9247 127.865 34.3564C126.863 31.937 126.359 29.3434 126.359 26.7235C126.359 19.0138 131.395 12.9141 139.361 12.9141H139.408C143.517 12.9141 146.414 14.4732 146.947 18.1707C147.028 15.9506 146.41 14.1938 144.907 13.0905C144.822 11.5079 144.753 9.92565 144.877 8.39663C145.296 3.20219 149.724 -0.358245 154.837 0.0338235C157.233 0.217547 159.62 1.39596 161.008 3.40554C164.205 8.03533 160.415 13.0635 156.738 16.2084C156.8 16.2078 156.862 16.2074 156.924 16.2074C164.56 16.2074 169.571 19.1842 169.571 27.2856C169.571 35.1431 165.169 40.9082 156.924 40.9082C156.442 40.9082 155.967 40.8901 155.501 40.8533C150.456 40.7309 145.053 39.2498 145.053 33.2144V23.2589C144.397 23.6481 143.624 23.8669 142.805 23.8669C141.174 23.8669 139.693 23.0048 138.775 21.6681L138.649 21.4853L138.721 21.0466L138.898 20.914ZM169.563 20.448L169.53 20.2599C169.043 17.5401 167.222 15.9343 164.624 15.1962L164.225 15.0826V14.249L164.624 14.1354C167.222 13.3969 169.043 11.7915 169.53 9.07136L169.563 8.88358H170.722L170.755 9.07136C171.242 11.7915 173.063 13.3969 175.66 14.1354L176.06 14.249V15.0826L175.66 15.1962C173.063 15.9343 171.242 17.5401 170.755 20.2599L170.722 20.448H169.563ZM119.768 30.5673C121.27 31.8906 122.774 32.9289 123.997 33.2205L124.182 33.2645L124.419 33.5649V34.0601L124.302 34.2943L124.197 34.3723C121.082 36.699 117.378 37.9872 113.473 37.9872L113.207 37.9822L112.913 37.9872C109.017 37.9872 105.313 36.6987 102.198 34.3723L101.977 34.0601L102.213 33.2645L102.399 33.2205C103.621 32.9289 105.125 31.8906 106.627 30.5673C105.819 30.1666 105.043 29.6889 104.307 29.1404L104.203 29.0621L104.086 28.8283V28.3664L104.322 28.0651L104.508 28.0209C105.658 27.7472 107.132 26.6267 108.545 25.2833C107.843 24.9588 107.17 24.5572 106.538 24.0855L106.434 24.0072L106.317 23.7731V23.3493L106.554 23.0482L106.739 23.0042C108.584 22.5641 111.64 19.0348 112.755 17.5027L112.919 17.2765H113.477L113.64 17.5027C114.756 19.0348 117.812 22.5641 119.656 23.0042L119.842 23.0482L120.078 23.3493V23.7731L119.962 24.0072L119.857 24.0855C119.225 24.5572 118.553 24.9588 117.85 25.2833C119.264 26.6262 120.737 27.7472 121.888 28.0209L122.073 28.0651L122.31 28.3664V28.8283L122.193 29.0621L122.088 29.1404C121.353 29.6889 120.577 30.1666 119.768 30.5673ZM152.696 17.3384C155.215 15.5217 157.076 12.8209 157.79 9.7749C158.246 7.82687 158.343 4.59092 156.458 3.30683C155.965 2.97097 155.394 2.83486 154.802 2.84914C154.324 2.86087 153.809 2.95064 153.453 3.2973C152.501 4.22266 152.702 7.57277 152.702 8.82237V17.0978L152.696 17.3384ZM155.41 39.0585C155.88 39.2469 156.372 39.3387 156.878 39.3387C161.748 39.3387 162.015 30.5472 162.015 27.2387C162.015 23.4562 161.924 17.7764 156.878 17.7764C154.945 17.7764 153.597 19.1747 152.702 20.7618V33.2144C152.702 35.6564 153.171 37.8089 155.41 39.0585ZM231.121 1.63891C231.749 2.5465 232.246 3.55268 232.559 4.63249C233.501 8.33542 231.365 11.8416 227.861 13.1146C221.02 15.6009 215.203 8.87185 208.614 10.7263L208.396 10.7875L208.002 10.5673L207.75 9.69942L207.946 9.31083L208.15 9.23627C210.342 8.43495 211.84 8.02988 214.185 8.06634L214.244 8.07087C219.602 8.74398 229.217 9.17507 230.126 1.88546L230.173 1.50884L230.906 1.32802L231.121 1.63891ZM203.622 29.4611V34.2384C203.622 34.9159 203.622 35.5976 203.653 36.2993V41.3891L203.332 41.7123H196.345L196.023 41.3891V38.8076C198.595 36.4614 201.81 33.0584 203.622 29.4611Z" fill="#E6B175"/>
<path fill-rule="evenodd" clip-rule="evenodd" d="M8.18885 29.7603C8.87996 33.8977 11.3951 37.9054 16.0211 37.9054C19.6804 37.9054 22.451 34.2234 23.4919 31.0481L23.5803 30.7798L24.1171 30.6098L24.8401 31.1547L24.9538 31.4494L24.9241 31.6052C23.7745 37.6171 18.7793 42.2293 12.5831 42.2293C10.8085 42.2293 9.18431 41.9186 7.73539 41.3488C7.5627 41.7326 7.46676 42.1736 7.46676 42.6688C7.46676 46.278 12.324 47.4862 15.1422 47.4862C23.0272 47.4862 26.9065 40.9595 26.9065 33.6595V29.0398C27.0054 23.0564 24.8815 13.5314 34.0365 13.5314C35.707 13.5314 37.4119 13.827 39.0436 14.1667C41.2704 14.6299 45.0532 15.73 47.264 15.4309L47.587 15.3339L48.029 15.6646V41.159L47.7073 41.4824H40.748L40.4265 41.159V35.7876C40.4363 35.1257 40.4265 34.4621 40.4265 33.8V22.8646C40.4265 21.891 40.9178 17.6647 39.8162 17.2799C39.5254 17.1779 39.2223 17.1211 38.9148 17.1121C35.6229 17.0183 34.5088 21.3079 34.5088 23.8997V31.792C34.5088 43.2666 25.7402 49.4293 15.1422 49.4293C9.91992 49.4293 0.235803 47.1691 0.235803 40.3816C0.235803 37.218 2.85831 35.255 5.84954 35.255C6.35028 35.255 6.85771 35.3201 7.3588 35.4387C6.61451 34.9362 5.82307 34.5851 5.06561 34.4236C3.69148 34.1302 2.3074 34.3155 1.21335 34.954C0.421787 33.1417 0 31.0827 0 28.8866C0 21.012 6.15516 15.023 13.9578 14.7511C18.6224 14.5881 23.976 16.6319 24.0978 22.0592C24.2282 27.9115 17.8916 30.5583 12.9086 30.5583C11.3603 30.5583 9.68446 30.3026 8.18885 29.7603ZM89.9934 18.263C87.8408 15.6393 84.3083 13.1891 81.1116 13.4515C79.3602 13.5951 77.428 14.6385 76.1452 16.4029C74.5223 18.6351 73.8128 24.7586 74.1826 30.5393C74.5687 36.5759 76.1524 42.2293 80.0905 42.2293C84.8836 42.2293 88.2496 36.6613 90.0426 31.8853V35.8422C90.0426 38.7442 91.0871 41.4824 94.4016 41.4824H98.5769L98.8925 40.9265L98.7306 40.651C97.9441 39.3126 97.6454 36.5756 97.6454 35.0489L97.3865 12.9449L96.852 12.6239L96.5776 12.7716C95.1452 14.7095 92.6301 16.1338 90.4509 16.5035L90.2527 16.537L89.9934 16.8454V18.263ZM85.0251 18.4327C86.9154 17.9572 89.1486 19.496 90.0727 20.5375C90.0837 20.9191 90.0426 23.2151 90.0426 23.6116C90.0426 27.0956 88.7822 31.4878 86.9081 34.3865C86.2788 35.3587 84.9263 37.1118 83.622 37.1118C81.5874 37.1118 79.4988 19.823 85.0251 18.4327ZM57.2003 31.1319V32.1702C57.2003 32.9552 57.1952 35.4536 57.2293 36.2619V41.3884L56.9077 41.7117H49.888L49.5665 41.3884L49.5676 36.8954C49.6287 35.9003 49.5979 34.8763 49.5979 33.8777V21.9608C49.5979 21.6906 49.6032 21.4215 49.5979 21.1405V15.4585L49.8448 15.1543L50.0364 15.1146C52.208 14.6674 54.4431 13.8191 56.3914 12.7657L56.6658 12.6179L57.2003 12.9389V25.6472C62.3524 17.0678 76.2739 3.17966 85.5094 2.78027C89.3838 2.61281 93.0879 4.69567 93.0879 8.40452C93.0879 10.5766 91.198 11.9726 89.3003 12.5283L89.086 12.5915L88.6913 12.3803L88.6238 12.1661C88.3162 11.1925 87.8111 10.3586 87.1654 9.67468C80.8259 2.95889 66.6062 16.8285 62.6113 21.8749C63.5282 21.4298 64.519 21.1621 65.5726 21.1621C70.5321 21.1621 72.9515 25.1288 72.9515 29.7891V35.2783C72.9515 36.8595 73.3149 39.4934 74.1299 40.8803L74.2918 41.1559L73.9761 41.7117H68.8713C66.0221 41.7117 65.3493 39.9914 65.3493 37.4258V29.7891C65.3493 28.0286 64.6853 25.4388 62.5059 25.4388C60.2257 25.4388 58.1068 29.3006 57.2003 31.1319ZM19.108 13.1257C21.0595 13.1257 22.6862 11.4921 22.7324 9.48434C22.7324 7.57057 21.1991 5.93691 19.2014 5.93691C17.2499 5.93691 15.5772 7.57057 15.5305 9.48434C15.5305 11.4921 17.1565 13.1257 19.108 13.1257ZM9.66955 13.1257C11.6211 13.1257 13.2478 11.4921 13.2935 9.48434C13.2935 7.57057 11.7603 5.93691 9.76272 5.93691C7.81121 5.93691 6.13875 7.57057 6.09205 9.48434C6.09205 11.4921 7.71805 13.1257 9.66955 13.1257ZM7.99523 27.9471C9.01254 28.3556 10.1498 28.6623 11.2359 28.6623C15.2413 28.6623 17.3367 25.3287 17.4239 21.5909C17.4678 19.7308 16.8143 16.4599 14.3951 16.4599C9.44889 16.4599 7.75908 23.853 7.99523 27.9471Z" fill="#E6B175"/>
</g>
<defs>
<clipPath id="clip0_351_553">
<rect width="240" height="58" fill="white"/>
</clipPath>
</defs>
</svg>
