<svg width="0" height="0" class="hidden">
  <symbol xmlns="http://www.w3.org/2000/svg" viewBox="0 0 40 40" id="ic_arr_hor">
    <path d="M14.125 20L24.375 9.75L26.4167 11.7917L18.1667 20L26.375 28.2083L24.3333 30.25L14.125 20Z" fill="currentColor"></path>
  </symbol>
  <symbol xmlns="http://www.w3.org/2000/svg" viewBox="0 0 14 14" id="ic_arr_ver">
    <path d="M7 9.33325L3.5 5.83325H10.5L7 9.33325Z" fill="currentColor"></path>
  </symbol>
  <symbol xmlns="http://www.w3.org/2000/svg" viewBox="0 0 21 12" id="ic_arrow_hor">
    <path d="M20.5303 6.53033C20.8232 6.23744 20.8232 5.76256 20.5303 5.46967L15.7574 0.696699C15.4645 0.403806 14.9896 0.403806 14.6967 0.696699C14.4038 0.989593 14.4038 1.46447 14.6967 1.75736L18.9393 6L14.6967 10.2426C14.4038 10.5355 14.4038 11.0104 14.6967 11.3033C14.9896 11.5962 15.4645 11.5962 15.7574 11.3033L20.5303 6.53033ZM0 6.75H20V5.25H0V6.75Z" fill="currentColor"></path>
  </symbol>
  <symbol xmlns="http://www.w3.org/2000/svg" viewBox="0 0 13 12" id="ic_arrow_hor2">
    <path d="M0.46967 5.46967C0.176777 5.76256 0.176777 6.23744 0.46967 6.53033L5.24264 11.3033C5.53553 11.5962 6.01041 11.5962 6.3033 11.3033C6.59619 11.0104 6.59619 10.5355 6.3033 10.2426L2.06066 6L6.3033 1.75736C6.59619 1.46447 6.59619 0.989593 6.3033 0.6967C6.01041 0.403806 5.53553 0.403806 5.24264 0.6967L0.46967 5.46967ZM13 5.25L1 5.25L1 6.75L13 6.75L13 5.25Z" fill="currentColor"></path>
  </symbol>
  <symbol xmlns="http://www.w3.org/2000/svg" viewBox="0 0 34 34" id="ic_cart">
    <path d="M8.54836 28.6316C8.18935 28.6316 7.87024 28.5265 7.59101 28.3164C7.31178 28.1063 7.13227 27.8311 7.05249 27.4909L3.61199 15.154C3.53221 14.8138 3.59703 14.5136 3.80645 14.2535C4.01588 13.9933 4.30009 13.8632 4.6591 13.8632H10.6127L16.0576 5.8487C16.1773 5.6886 16.3119 5.56854 16.4615 5.48849C16.6111 5.40845 16.7757 5.36842 16.9552 5.36842C17.1347 5.36842 17.2992 5.40845 17.4488 5.48849C17.5984 5.56854 17.733 5.6886 17.8527 5.8487L23.2677 13.8632H29.3709C29.7099 13.8632 29.9842 13.9933 30.1936 14.2535C30.403 14.5136 30.4678 14.8138 30.3881 15.154L26.9476 27.4909C26.8478 27.8311 26.6584 28.1063 26.3791 28.3164C26.0999 28.5265 25.7908 28.6316 25.4517 28.6316H8.54836ZM8.90737 26.5904H25.0628L28.0545 15.9044H5.94555L8.90737 26.5904ZM16.9851 23.0784C17.5036 23.0784 17.9374 22.9033 18.2865 22.5531C18.6355 22.2029 18.81 21.7677 18.81 21.2474C18.81 20.7271 18.6355 20.2919 18.2865 19.9417C17.9374 19.5915 17.5036 19.4164 16.9851 19.4164C16.4665 19.4164 16.0327 19.5915 15.6837 19.9417C15.3346 20.2919 15.1601 20.7271 15.1601 21.2474C15.1601 21.7677 15.3346 22.2029 15.6837 22.5531C16.0327 22.9033 16.4665 23.0784 16.9851 23.0784ZM13.0659 13.8632H20.8145L16.9552 8.19002L13.0659 13.8632ZM8.90737 26.5904H25.0628H8.90737Z" fill="currentColor"></path>
  </symbol>
  <symbol xmlns="http://www.w3.org/2000/svg" viewBox="0 0 30 30" id="ic_catalog">
    <path d="M21.2188 15.4375L14.5625 8.78125L21.2188 2.125L27.875 8.78125L21.2188 15.4375ZM3.75 13.1875V3.78125H13.1562V13.1875H3.75ZM16.8125 26.25V16.8438H26.2188V26.25H16.8125ZM3.75 26.25V16.8438H13.1562V26.25H3.75ZM5.625 11.3125H11.2812V5.65625H5.625V11.3125ZM21.3125 12.9062L25.3438 8.875L21.3125 4.84375L17.2812 8.875L21.3125 12.9062ZM18.6875 24.375H24.3438V18.7188H18.6875V24.375ZM5.625 24.375H11.2812V18.7188H5.625V24.375Z" fill="currentColor"></path>
  </symbol>
  <symbol xmlns="http://www.w3.org/2000/svg" viewBox="0 0 14 14" id="ic_check">
    <path d="M5.51217 10.7625L1.89551 7.14581L2.88717 6.15414L5.51217 8.77914L11.0976 3.19373L12.0893 4.18539L5.51217 10.7625Z" fill="currentColor"></path>
  </symbol>
  <symbol xmlns="http://www.w3.org/2000/svg" viewBox="0 0 30 30" id="ic_close">
    <path d="M15.0009 13.2325L21.1884 7.04498L22.9559 8.81248L16.7684 15L22.9559 21.1875L21.1884 22.955L15.0009 16.7675L8.8134 22.955L7.0459 21.1875L13.2334 15L7.0459 8.81248L8.8134 7.04498L15.0009 13.2325Z" fill="currentColor"></path>
  </symbol>
  <symbol xmlns="http://www.w3.org/2000/svg" viewBox="0 0 18 18" id="ic_delivery">
    <path d="M12.75 6H15L17.25 9.042V13.5H15.7238C15.6346 14.1257 15.3227 14.6983 14.8453 15.1125C14.3679 15.5267 13.757 15.7547 13.125 15.7547C12.493 15.7547 11.8821 15.5267 11.4047 15.1125C10.9273 14.6983 10.6154 14.1257 10.5262 13.5H6.72375C6.63459 14.1257 6.32266 14.6983 5.84526 15.1125C5.36786 15.5267 4.75704 15.7547 4.125 15.7547C3.49296 15.7547 2.88214 15.5267 2.40474 15.1125C1.92734 14.6983 1.61541 14.1257 1.52625 13.5H0.75V4.5C0.75 4.30109 0.829018 4.11032 0.96967 3.96967C1.11032 3.82902 1.30109 3.75 1.5 3.75H12C12.1989 3.75 12.3897 3.82902 12.5303 3.96967C12.671 4.11032 12.75 4.30109 12.75 4.5V6ZM12.75 7.5V9.75H15.75V9.53625L14.244 7.5H12.75Z" fill="currentColor"></path>
  </symbol>
  <symbol xmlns="http://www.w3.org/2000/svg" viewBox="0 0 28 28" id="ic_email">
    <path d="M13.9997 14.525L4.08301 8.02085V21.5834H15.458V23.3334H4.08301C3.61634 23.3334 3.20801 23.1584 2.85801 22.8084C2.50801 22.4584 2.33301 22.05 2.33301 21.5834V6.41669C2.33301 5.95002 2.50801 5.54169 2.85801 5.19169C3.20801 4.84169 3.61634 4.66669 4.08301 4.66669H23.9163C24.383 4.66669 24.7913 4.84169 25.1413 5.19169C25.4913 5.54169 25.6663 5.95002 25.6663 6.41669V15.4584H23.9163V8.02085L13.9997 14.525ZM13.9997 12.775L23.9163 6.41669H4.08301L13.9997 12.775ZM22.5747 26.7167L21.3497 25.4917L23.4788 23.3334H17.208V21.5834H23.4788L21.3205 19.425L22.5747 18.2L26.833 22.4584L22.5747 26.7167ZM4.08301 8.02085V22.575V15.4584V15.575V6.41669V8.02085Z" fill="currentColor"></path>
  </symbol>
  <symbol xmlns="http://www.w3.org/2000/svg" viewBox="0 0 18 18" id="ic_features">
    <path d="M15.75 6.75V15.7447C15.7507 15.8432 15.732 15.9409 15.6949 16.0322C15.6579 16.1234 15.6032 16.2065 15.534 16.2766C15.4649 16.3468 15.3826 16.4026 15.2919 16.4409C15.2011 16.4792 15.1037 16.4993 15.0052 16.5H2.99475C2.79736 16.5 2.60804 16.4216 2.4684 16.2821C2.32875 16.1426 2.2502 15.9534 2.25 15.756V2.244C2.25 1.84125 2.58525 1.5 2.9985 1.5H10.5V6C10.5 6.19891 10.579 6.38968 10.7197 6.53033C10.8603 6.67098 11.0511 6.75 11.25 6.75H15.75ZM15.75 5.25H12V1.50225L15.75 5.25ZM6 5.25V6.75H8.25V5.25H6ZM6 8.25V9.75H12V8.25H6ZM6 11.25V12.75H12V11.25H6Z" fill="currentColor"></path>
  </symbol>
  <symbol xmlns="http://www.w3.org/2000/svg" viewBox="0 0 24 24" id="ic_menu">
    <path d="M3 4H21V6H3V4ZM9 11H21V13H9V11ZM3 18H21V20H3V18Z" fill="currentColor"></path>
  </symbol>
  <symbol xmlns="http://www.w3.org/2000/svg" viewBox="0 0 10 2" id="ic_pag_sep">
    <circle cx="1" cy="1" r="1" fill="currentColor"></circle>
    <circle cx="5" cy="1" r="1" fill="currentColor"></circle>
    <circle cx="9" cy="1" r="1" fill="currentColor"></circle>
  </symbol>
  <symbol xmlns="http://www.w3.org/2000/svg" viewBox="0 0 28 28" id="ic_phone">
    <path d="M12.833 24.5V22.75H22.7497V13.8833C22.7497 12.7556 22.5066 11.6715 22.0205 10.6312C21.5344 9.59097 20.883 8.67222 20.0663 7.875C19.2497 7.07778 18.3163 6.44097 17.2663 5.96458C16.2163 5.48819 15.1275 5.25 13.9997 5.25C12.8719 5.25 11.783 5.48819 10.733 5.96458C9.68301 6.44097 8.74967 7.07778 7.93301 7.875C7.11634 8.67222 6.46495 9.59097 5.97884 10.6312C5.49273 11.6715 5.24967 12.7556 5.24967 13.8833V21H4.66634C4.02467 21 3.47537 20.7715 3.01842 20.3146C2.56148 19.8576 2.33301 19.3083 2.33301 18.6667V16.3333C2.33301 15.8861 2.43995 15.4924 2.65384 15.1521C2.86773 14.8118 3.14967 14.5347 3.49967 14.3208L3.58717 12.775C3.76217 11.3556 4.16565 10.0722 4.79759 8.925C5.42954 7.77778 6.21704 6.80556 7.16009 6.00833C8.10315 5.21111 9.16287 4.59375 10.3393 4.15625C11.5156 3.71875 12.7358 3.5 13.9997 3.5C15.283 3.5 16.5129 3.71875 17.6893 4.15625C18.8656 4.59375 19.9205 5.21597 20.8538 6.02292C21.7872 6.82986 22.5698 7.80208 23.2018 8.93958C23.8337 10.0771 24.2372 11.3458 24.4122 12.7458L24.4997 14.2625C24.8497 14.4375 25.1316 14.6951 25.3455 15.0354C25.5594 15.3757 25.6663 15.75 25.6663 16.1583V18.8417C25.6663 19.2694 25.5594 19.6486 25.3455 19.9792C25.1316 20.3097 24.8497 20.5625 24.4997 20.7375V22.75C24.4997 23.2361 24.3295 23.6493 23.9893 23.9896C23.649 24.3299 23.2358 24.5 22.7497 24.5H12.833ZM10.4997 16.0417C10.2663 16.0417 10.0622 15.9542 9.88717 15.7792C9.71217 15.6042 9.62467 15.3903 9.62467 15.1375C9.62467 14.9042 9.71217 14.7049 9.88717 14.5396C10.0622 14.3743 10.2761 14.2917 10.5288 14.2917C10.7622 14.2917 10.9615 14.3743 11.1268 14.5396C11.292 14.7049 11.3747 14.9139 11.3747 15.1667C11.3747 15.4 11.292 15.6042 11.1268 15.7792C10.9615 15.9542 10.7525 16.0417 10.4997 16.0417ZM17.4997 16.0417C17.2663 16.0417 17.0622 15.9542 16.8872 15.7792C16.7122 15.6042 16.6247 15.3903 16.6247 15.1375C16.6247 14.9042 16.7122 14.7049 16.8872 14.5396C17.0622 14.3743 17.2761 14.2917 17.5288 14.2917C17.7622 14.2917 17.9615 14.3743 18.1268 14.5396C18.292 14.7049 18.3747 14.9139 18.3747 15.1667C18.3747 15.4 18.292 15.6042 18.1268 15.7792C17.9615 15.9542 17.7525 16.0417 17.4997 16.0417ZM7.02884 14.525C6.95106 13.3778 7.11148 12.3375 7.51009 11.4042C7.9087 10.4708 8.44342 9.67847 9.11426 9.02708C9.78509 8.37569 10.558 7.875 11.433 7.525C12.308 7.175 13.183 7 14.058 7C15.8275 7 17.315 7.55903 18.5205 8.67708C19.7261 9.79514 20.465 11.1903 20.7372 12.8625C18.9094 12.8431 17.3004 12.3521 15.9101 11.3896C14.5198 10.4271 13.4455 9.17778 12.6872 7.64167C12.3761 9.21667 11.7198 10.6118 10.7184 11.8271C9.71704 13.0424 8.48717 13.9417 7.02884 14.525Z" fill="currentColor"></path>
  </symbol>
  <symbol xmlns="http://www.w3.org/2000/svg" viewBox="0 0 34 34" id="ic_user">
    <path d="M17 16.9646C15.4416 16.9646 14.1666 16.4688 13.175 15.4771C12.1833 14.4854 11.6875 13.2104 11.6875 11.6521C11.6875 10.0938 12.1833 8.81875 13.175 7.82708C14.1666 6.83542 15.4416 6.33958 17 6.33958C18.5583 6.33958 19.8333 6.83542 20.825 7.82708C21.8166 8.81875 22.3125 10.0938 22.3125 11.6521C22.3125 13.2104 21.8166 14.4854 20.825 15.4771C19.8333 16.4688 18.5583 16.9646 17 16.9646ZM5.66663 28.3333V25.0042C5.66663 24.1069 5.89093 23.3396 6.33954 22.7021C6.78815 22.0646 7.36663 21.5806 8.07496 21.25C9.6569 20.5417 11.1739 20.0104 12.626 19.6562C14.0781 19.3021 15.5361 19.125 17 19.125C18.4639 19.125 19.9159 19.308 21.3562 19.674C22.7965 20.0399 24.3076 20.5653 25.8895 21.25C26.6215 21.5806 27.2118 22.0646 27.6604 22.7021C28.109 23.3396 28.3333 24.1069 28.3333 25.0042V28.3333H5.66663ZM7.79163 26.2083H26.2083V25.0042C26.2083 24.6264 26.0961 24.2663 25.8718 23.924C25.6475 23.5816 25.3701 23.3278 25.0395 23.1625C23.5284 22.4306 22.1472 21.9288 20.8958 21.6573C19.6444 21.3858 18.3458 21.25 17 21.25C15.6541 21.25 14.3437 21.3858 13.0687 21.6573C11.7937 21.9288 10.4125 22.4306 8.92496 23.1625C8.5944 23.3278 8.32288 23.5816 8.11038 23.924C7.89788 24.2663 7.79163 24.6264 7.79163 25.0042V26.2083ZM17 14.8396C17.9208 14.8396 18.6823 14.5385 19.2843 13.9365C19.8864 13.3344 20.1875 12.5729 20.1875 11.6521C20.1875 10.7313 19.8864 9.96979 19.2843 9.36771C18.6823 8.76563 17.9208 8.46458 17 8.46458C16.0791 8.46458 15.3177 8.76563 14.7156 9.36771C14.1135 9.96979 13.8125 10.7313 13.8125 11.6521C13.8125 12.5729 14.1135 13.3344 14.7156 13.9365C15.3177 14.5385 16.0791 14.8396 17 14.8396Z" fill="currentColor"></path>
  </symbol>
  <symbol xmlns="http://www.w3.org/2000/svg" viewBox="0 0 26 25" id="ic_search">
    <path d="M2 19.0833V17.4583H12.8333V19.0833H2ZM2 13.3958V11.7708H7.41667V13.3958H2ZM2 7.70833V6.08333H7.41667V7.70833H2ZM22.5292 19.0833L18.1958 14.75C17.7264 15.1111 17.2208 15.3819 16.6792 15.5625C16.1375 15.7431 15.5778 15.8333 15 15.8333C13.5014 15.8333 12.224 15.3052 11.1677 14.249C10.1115 13.1927 9.58333 11.9153 9.58333 10.4167C9.58333 8.91806 10.1115 7.64062 11.1677 6.58438C12.224 5.52813 13.5014 5 15 5C16.4986 5 17.776 5.52813 18.8323 6.58438C19.8885 7.64062 20.4167 8.91806 20.4167 10.4167C20.4167 10.9944 20.3264 11.5542 20.1458 12.0958C19.9653 12.6375 19.6944 13.1431 19.3333 13.6125L23.6667 17.9458L22.5292 19.0833ZM15 14.2083C16.0472 14.2083 16.941 13.8382 17.6812 13.0979C18.4215 12.3576 18.7917 11.4639 18.7917 10.4167C18.7917 9.36944 18.4215 8.47569 17.6812 7.73542C16.941 6.99514 16.0472 6.625 15 6.625C13.9528 6.625 13.059 6.99514 12.3187 7.73542C11.5785 8.47569 11.2083 9.36944 11.2083 10.4167C11.2083 11.4639 11.5785 12.3576 12.3187 13.0979C13.059 13.8382 13.9528 14.2083 15 14.2083Z" fill="currentColor"></path>
  </symbol>
  <symbol xmlns="http://www.w3.org/2000/svg" viewBox="0 0 30 30" id="ic_telegram">
    <path d="M15 25C17.6522 25 20.1957 23.9464 22.0711 22.0711C23.9464 20.1957 25 17.6522 25 15C25 12.3478 23.9464 9.8043 22.0711 7.92893C20.1957 6.05357 17.6522 5 15 5C12.3478 5 9.8043 6.05357 7.92893 7.92893C6.05357 9.8043 5 12.3478 5 15C5 17.6522 6.05357 20.1957 7.92893 22.0711C9.8043 23.9464 12.3478 25 15 25ZM15 27.5C8.09625 27.5 2.5 21.9037 2.5 15C2.5 8.09625 8.09625 2.5 15 2.5C21.9037 2.5 27.5 8.09625 27.5 15C27.5 21.9037 21.9037 27.5 15 27.5ZM11.1125 16.4625L7.99 15.4887C7.315 15.2825 7.31125 14.8175 8.14125 14.4837L20.3075 9.78375C21.0138 9.49625 21.4137 9.86 21.185 10.7712L19.1138 20.5462C18.9688 21.2425 18.55 21.4088 17.9688 21.0875L14.78 18.7275L13.2938 20.1625C13.1413 20.31 13.0175 20.4363 12.7825 20.4675C12.5487 20.5 12.3563 20.43 12.215 20.0425L11.1275 16.4538L11.1125 16.4637V16.4625Z" fill="currentColor"></path>
  </symbol>
  <symbol xmlns="http://www.w3.org/2000/svg" viewBox="0 0 30 30" id="ic_whatsapp">
    <path d="M9.06627 23.1175L9.97127 23.6462C11.4974 24.5363 13.2333 25.0036 15 25C16.9778 25 18.9112 24.4135 20.5557 23.3147C22.2002 22.2159 23.4819 20.6541 24.2388 18.8268C24.9957 16.9996 25.1937 14.9889 24.8079 13.0491C24.422 11.1093 23.4696 9.32746 22.0711 7.92893C20.6726 6.53041 18.8907 5.578 16.9509 5.19215C15.0111 4.8063 13.0004 5.00433 11.1732 5.7612C9.34592 6.51808 7.78413 7.79981 6.68532 9.4443C5.58651 11.0888 5.00002 13.0222 5.00002 15C5.00002 16.795 5.47127 18.5162 6.35502 20.03L6.88252 20.935L6.06627 23.9362L9.06627 23.1175ZM2.50502 27.5L4.19502 21.29C3.08144 19.3811 2.49639 17.21 2.50002 15C2.50002 8.09625 8.09627 2.5 15 2.5C21.9038 2.5 27.5 8.09625 27.5 15C27.5 21.9037 21.9038 27.5 15 27.5C12.791 27.5036 10.6208 26.919 8.71252 25.8062L2.50502 27.5ZM10.4888 9.135C10.6563 9.1225 10.825 9.1225 10.9925 9.13C11.06 9.135 11.1275 9.1425 11.195 9.15C11.3938 9.1725 11.6125 9.29375 11.6863 9.46125C12.0588 10.3062 12.4213 11.1575 12.7713 12.0112C12.8488 12.2012 12.8025 12.445 12.655 12.6825C12.5536 12.8431 12.4438 12.9983 12.3263 13.1475C12.185 13.3287 11.8813 13.6612 11.8813 13.6612C11.8813 13.6612 11.7575 13.8087 11.805 13.9925C11.8225 14.0625 11.88 14.1637 11.9325 14.2487L12.0063 14.3675C12.3263 14.9012 12.7563 15.4425 13.2813 15.9525C13.4313 16.0975 13.5775 16.2462 13.735 16.385C14.32 16.9012 14.9825 17.3225 15.6975 17.635L15.7038 17.6375C15.81 17.6837 15.8638 17.7087 16.0188 17.775C16.0963 17.8075 16.1763 17.8362 16.2575 17.8575C16.3415 17.8789 16.4299 17.8749 16.5116 17.8459C16.5932 17.817 16.6645 17.7645 16.7163 17.695C17.6213 16.5987 17.7038 16.5275 17.7113 16.5275V16.53C17.7741 16.4714 17.8488 16.4269 17.9303 16.3995C18.0118 16.3721 18.0982 16.3625 18.1838 16.3712C18.2588 16.3762 18.335 16.39 18.405 16.4212C19.0688 16.725 20.155 17.1987 20.155 17.1987L20.8825 17.525C21.005 17.5837 21.1163 17.7225 21.12 17.8562C21.125 17.94 21.1325 18.075 21.1038 18.3225C21.0638 18.6462 20.9663 19.035 20.8688 19.2387C20.802 19.3778 20.7134 19.5052 20.6063 19.6162C20.4801 19.7487 20.342 19.8692 20.1938 19.9762C20.1425 20.0148 20.0904 20.0523 20.0375 20.0887C19.882 20.1874 19.7223 20.2791 19.5588 20.3637C19.2369 20.5347 18.8815 20.6328 18.5175 20.6512C18.2863 20.6637 18.055 20.6812 17.8225 20.6687C17.8125 20.6687 17.1125 20.56 17.1125 20.56C15.3353 20.0925 13.6918 19.2168 12.3125 18.0025C12.03 17.7537 11.7688 17.4862 11.5013 17.22C10.3888 16.1137 9.54877 14.92 9.03877 13.7925C8.77773 13.2391 8.63672 12.6368 8.62502 12.025C8.61986 11.2661 8.86795 10.5271 9.33002 9.925C9.42127 9.8075 9.50752 9.685 9.65627 9.54375C9.81502 9.39375 9.91502 9.31375 10.0238 9.25875C10.1684 9.18629 10.3261 9.14377 10.4875 9.13375L10.4888 9.135Z" fill="currentColor"></path>
  </symbol>
</svg>